<svg class="logo" version="1.0" id="Layer_1" xmlns="http://www.w3.org/2000/svg" xmlns:xlink="http://www.w3.org/1999/xlink" x="0px" y="0px"
	 width="515.198px" height="164.701px" viewBox="0 0 515.198 164.701" enable-background="new 0 0 515.198 164.701"
	 xml:space="preserve">
<g>
	<path class="gold" d="M0,26.095h31.23c36.407,0,60.623,22.713,60.623,56.782c0,34.069-24.049,56.783-60.623,56.783H0V26.095z
		 M30.061,124.128c29.56,0,43.422-17.034,43.422-41.251c0-24.215-13.862-41.25-43.422-41.25H17.702v82.501H30.061z"/>
	<g>
		<path class="gold" d="M199.238,131.399c-1.907,0.143-3.626,0.212-5.254,0.212c-1.868,0-3.751-0.081-5.636-0.234
			c-7.056,10.72-18.873,17.459-33.293,17.459c-23.714,0-40.583-18.204-40.583-42.421c0-24.215,16.868-42.419,40.583-42.419
			c23.055,0,39.477,17.207,40.373,40.415c1.963-0.069,3.884-0.285,5.8-0.643c1.337-0.251,2.628-0.565,3.833-0.93
			c2.862-0.869,5.535-2.114,8.025-3.659c-3.418-30.078-27.988-51.049-58.03-51.049c-32.566,0-58.62,24.383-58.62,58.284
			c0,33.903,26.054,58.286,58.62,58.286c24.234,0,44.914-13.644,53.799-34.706c-1.587,0.349-3.186,0.655-4.798,0.89
			C202.591,131.098,201.016,131.266,199.238,131.399z"/>
	</g>
	<path class="purple" d="M251.148,26.095h18.872l25.552,60.958c3.339,7.515,6.847,20.207,6.847,20.207s3.173-12.524,6.68-20.207
		l25.219-60.958h17.202l-48.432,114.733h-2.172L251.148,26.095z"/>
	<path class="purple" d="M359.138,26.095h63.952v15.532h-46.249v41.594h35.972v15.197h-35.972v25.71h48.586v15.532h-66.289V26.095z"
		/>
	<path class="purple" d="M432.195,26.095h38.078c23.381,0,41.251,11.022,41.251,36.074c0,16.868-9.186,27.723-23.049,32.566
		l26.723,44.925h-20.209L470.44,97.574h-20.542v42.086h-17.703V26.095z M469.604,82.711c15.031,0,23.716-6.18,23.716-20.542
		c0-14.696-8.852-20.542-23.716-20.542h-19.706v41.084H469.604z"/>
</g>
<g>
	<path class="purple" d="M159.354,41.449c5.964-9.354,15.418-15.848,26.99-17.842l-5.613-15.543
		c-19.423,4.081-35.189,17.052-42.462,35.232c5.322-1.301,10.941-1.989,16.786-1.989C156.504,41.308,157.935,41.365,159.354,41.449z
		"/>
	<path class="purple" d="M208.795,8.424l-5.592,15.484c19.298,4.085,32.197,20.974,32.197,42.515
		c0,14.371-5.748,26.666-15.299,34.479c-3.897,3.188-8.422,5.632-13.456,7.158c-1.431,0.435-2.905,0.789-4.414,1.073
		c-2.641,0.494-5.393,0.761-8.248,0.761c-1.863,0-3.68-0.123-5.456-0.336c-19.972-2.402-34.147-17.947-35.938-38.649
		c-6.77,0.446-12.816,2.723-17.748,6.419c4.374,25.617,24.021,44.124,49.117,48.04c3.259,0.509,6.604,0.785,10.025,0.785
		c1.634,0,3.247-0.077,4.847-0.197c1.495-0.112,2.979-0.26,4.441-0.472c5.455-0.793,10.655-2.292,15.512-4.396
		c20.742-8.982,35.101-29.194,35.101-54.665C253.885,37.036,234.779,14.631,208.795,8.424z"/>
</g>
<polygon class="gold" points="190.622,23.4 183.684,4.188 189.256,0 200.4,0 205.972,4.188 199.034,23.4 "/>
<g>
	<path class="purple" d="M104.422,36.499l-2.795,7.554l6.27-3.399l-0.604,1.548l-10.084,5.515h-1.964l6.232-16.771l6.27-3.437
		l-2.682,7.365l3.437-1.888l0.529,0.906L104.422,36.499z"/>
	<path class="purple" d="M126.439,42.202l-9.82,5.515h-2.115l4.268-11.784l-5.59,3.134l-3.286,8.65h-4.948l8.007-21.793l7.479-4.193
		c0.604-0.301,1.02-0.377,1.7-0.377c1.813,0,3.323,1.435,3.323,3.249c0,2.001-1.36,3.399-2.908,4.267l-7.176,4.042l-1.548,4.533
		l7.062-3.967h3.777l-3.777,10.576l6.156-3.399L126.439,42.202z M122.133,22.335c-1.247,0-2.417,0.982-3.475,1.511l-2.682,7.516
		l5.93-3.248c1.095-0.605,2.455-1.89,2.455-3.513C124.361,23.28,123.455,22.335,122.133,22.335z"/>
	<path class="purple" d="M141.568,41.56l-12.274,6.875c-1.511-1.737-2.795-3.589-2.795-6.384c0-5.136,5.137-9.027,8.8-9.027
		c2.379,0,3.929,1.474,4.23,3.513l-8.347,4.684c0.377,1.511,1.208,2.72,2.04,3.776l8.914-4.909L141.568,41.56z M133.599,34.648
		c-1.926,0-2.757,2.38-2.757,4.418c0,0.303,0.038,0.68,0.075,1.021l4.684-2.606C135.45,35.97,134.959,34.648,133.599,34.648z"/>
</g>
</svg>
